<svg preserveAspectRatio="none" width="100%" height="100%" overflow="visible" style="display: block;" viewBox="0 0 315.696 701.577" fill="none" xmlns="http://www.w3.org/2000/svg">
<foreignObject x="-50" y="-50" width="415.696" height="801.577"><div xmlns="http://www.w3.org/1999/xhtml" style="backdrop-filter:blur(25px);clip-path:url(#bgblur_0_0_325_clip_path);height:100%;width:100%"></div></foreignObject><path id="Vector" data-figma-bg-blur-radius="50" d="M315.082 175.046C236.081 196.889 181.339 268.783 181.339 350.789C181.339 432.795 236.081 504.688 315.082 526.531L267.363 700.961C109.754 657.613 0.500161 514.292 0.5 350.789C0.5 187.286 109.753 43.9633 267.363 0.615234L315.082 175.046Z" stroke="var(--stroke-0, #002761)"/>
<defs>
<clipPath id="bgblur_0_0_325_clip_path" transform="translate(50 50)"><path d="M315.082 175.046C236.081 196.889 181.339 268.783 181.339 350.789C181.339 432.795 236.081 504.688 315.082 526.531L267.363 700.961C109.754 657.613 0.500161 514.292 0.5 350.789C0.5 187.286 109.753 43.9633 267.363 0.615234L315.082 175.046Z"/>
</clipPath></defs>
</svg>
